<svg viewBox="0 0 75 40" fill="none" xmlns="http://www.w3.org/2000/svg">
<path d="M0 5.21547C0 3.13812 1.65179 0 5.625 0C8.52678 0 10.9821 2.20994 10.9821 5.48066C10.9821 8.57459 8.70536 10.6519 5.71429 10.6519C2.41071 10.6519 0 8.39779 0 5.21547ZM0 22.6298C0 20.5525 1.65179 17.4144 5.625 17.4144C8.52678 17.4144 10.9821 19.6243 10.9821 22.895C10.9821 25.989 8.70536 28.0663 5.71429 28.0663C2.41071 28.0221 0 25.768 0 22.6298Z" fill="black"/>
<path d="M19.5089 38.9836C19.1071 39.1604 18.4375 39.2488 17.9911 39.2488C17.4554 39.2488 17.1875 38.9836 17.1875 38.5858C17.1875 38.2764 17.4554 38.0112 17.8571 37.6134C19.2411 36.3759 22.8571 33.1935 22.8571 29.304C22.8571 28.2433 21.9196 27.5361 21.3839 27.3151C20.7143 27.0499 17.7232 26.2543 17.7232 22.9394C17.7232 20.1107 19.5982 17.5029 22.5446 17.5029C26.3393 17.5029 29.2857 20.9946 29.2857 26.1659C29.2411 33.1051 21.6071 37.9228 19.5089 38.9836Z" fill="#DC0D15"/>
<path d="M17.7236 5.21547C17.7236 3.13812 19.4201 0 23.3486 0C26.2504 0 28.7058 2.20994 28.7058 5.48066C28.7058 8.57458 26.429 10.6519 23.4379 10.6519C20.179 10.6519 17.7236 8.39779 17.7236 5.21547Z" fill="black"/>
<path d="M44.6433 17.4582V13.3035C44.6433 11.9333 44.2415 11.5356 43.3933 11.5356C42.5451 11.5356 42.1433 11.9333 42.1433 13.2593V17.4582H40.0897V13.3035C40.0897 11.9333 39.6879 11.5356 38.8397 11.5356C37.9915 11.5356 37.5897 11.9333 37.5897 13.2593V17.4582H35.5361V9.8118H37.5897V10.3422C37.9468 9.98859 38.4826 9.6792 39.2861 9.6792C40.2683 9.6792 40.8486 9.94439 41.429 10.6516C41.9647 10.1212 42.5897 9.6792 43.8843 9.6792C45.8486 9.6792 46.6522 11.0052 46.6522 13.1709V17.5024H44.6433V17.4582Z" fill="black"/>
<path d="M54.8664 14.2759H50.2235C50.3128 15.3367 51.0717 15.7344 51.8306 15.7344C52.411 15.7344 52.8574 15.5135 53.1699 15.2041L54.5985 16.3974C53.9735 17.193 52.8574 17.635 51.8306 17.635C49.5985 17.635 48.1699 16.088 48.1699 13.6571C48.1699 11.3146 49.6431 9.6792 51.6074 9.6792C53.661 9.6792 54.8664 11.4914 54.8664 13.6571C54.911 13.9223 54.8664 14.1433 54.8664 14.2759ZM51.5181 11.403C50.7592 11.403 50.3128 12.0217 50.2681 12.7731H52.9021C52.8574 12.0659 52.4556 11.403 51.5181 11.403Z" fill="black"/>
<path d="M60.6702 17.4586V16.9724C60.2684 17.326 59.7773 17.6353 59.0184 17.6353C57.3666 17.6353 56.0273 16.3978 56.0273 13.5691C56.0273 11.2707 57.0988 9.67955 59.0184 9.67955C59.6881 9.67955 60.2684 9.94474 60.6702 10.2983V7.91159L62.7238 6.89502V17.547H60.6702V17.4586ZM60.6702 12.1989C60.3577 11.7569 59.9113 11.5359 59.2863 11.5359C58.5273 11.5359 58.0809 12.1989 58.0809 13.4807C58.0809 15.0718 58.6166 15.6906 59.4202 15.6906C60.0452 15.6906 60.3577 15.4254 60.6702 15.0276V12.1989Z" fill="black"/>
<path d="M65.8043 9.14893C65.1793 9.14893 64.6436 8.61854 64.6436 7.99976C64.6436 7.38097 65.1793 6.85059 65.8043 6.85059C66.4293 6.85059 66.965 7.38097 66.965 7.99976C66.965 8.61854 66.4293 9.14893 65.8043 9.14893ZM64.7775 17.4583V9.81191H66.8311V17.4583H64.7775Z" fill="black"/>
<path d="M72.9915 17.4585V16.9281C72.6343 17.3259 71.9647 17.5911 71.2504 17.5911C69.8218 17.5911 68.3486 16.7071 68.3486 14.8507C68.3486 13.1712 69.7326 12.3314 71.4736 12.3314C72.1879 12.3314 72.6343 12.464 72.9468 12.6408V12.243C72.9468 11.7126 72.5897 11.2706 71.8308 11.2706C70.8933 11.2706 70.4022 11.4032 69.6879 11.801L68.929 10.3866C69.8218 9.85625 70.5808 9.63525 71.8308 9.63525C73.7058 9.63525 74.9558 10.6076 74.9558 12.3314V17.4585H72.9915ZM72.9915 14.2319C72.6343 14.0109 72.2772 13.9225 71.5629 13.9225C70.804 13.9225 70.4022 14.2761 70.4022 14.8949C70.4022 15.4253 70.7147 15.9115 71.5629 15.9115C72.2326 15.9115 72.7683 15.5579 72.9915 15.2043V14.2319Z" fill="black"/>
<path d="M39.2864 28.1985C38.6168 28.1985 38.0364 27.9333 37.6346 27.5797V29.8338L35.5811 30.8504V20.4195H37.6346V20.9057C38.0364 20.5521 38.5275 20.2427 39.2864 20.2427C40.9382 20.2427 42.2775 21.4802 42.2775 24.309C42.2775 26.6073 41.2061 28.1985 39.2864 28.1985ZM38.8846 22.1432C38.2596 22.1432 37.9471 22.4084 37.6346 22.8062V25.6791C37.9471 26.1211 38.4382 26.3421 39.0186 26.3421C39.8221 26.3421 40.2239 25.6791 40.2239 24.3974C40.2239 22.8062 39.6882 22.1432 38.8846 22.1432Z" fill="black"/>
<path d="M48.1701 22.7622C47.8576 22.4529 47.4558 22.2761 47.0093 22.2761C46.2058 22.2761 45.7147 22.6297 45.7147 23.9556V28.1103H43.6611V20.4197H45.7147V20.9501C46.0718 20.5965 46.5629 20.2871 47.3218 20.2871C47.9915 20.2871 48.4826 20.5523 48.7504 20.8175L48.1701 22.7622Z" fill="black"/>
<path d="M55.8038 24.8838H51.161C51.2503 25.9446 52.0092 26.3424 52.7681 26.3424C53.3485 26.3424 53.7949 26.1214 54.1074 25.812L55.536 27.0053C54.911 27.8009 53.7949 28.2429 52.7681 28.2429C50.536 28.2429 49.1074 26.696 49.1074 24.265C49.1074 21.9225 50.5806 20.2871 52.5449 20.2871C54.5985 20.2871 55.8038 22.0993 55.8038 24.265C55.8485 24.5302 55.8038 24.7512 55.8038 24.8838ZM52.4556 22.0109C51.6967 22.0109 51.2503 22.6297 51.2056 23.381H53.8396C53.7949 22.6739 53.3931 22.0109 52.4556 22.0109Z" fill="black"/>
<path d="M60.0451 28.1987C58.8397 28.1987 57.6343 27.8451 56.7861 27.3147L57.4558 25.7678C58.2593 26.2098 59.1522 26.475 60.1344 26.475C60.9379 26.475 61.1611 26.2982 61.1611 25.9004C61.1611 25.5468 60.8933 25.37 60.0451 25.149C58.1701 24.5744 57.0093 24.1324 57.0093 22.5413C57.0093 20.9501 58.304 20.2871 60.0897 20.2871C61.0719 20.2871 62.1433 20.5965 62.9469 21.0385L62.2772 22.6296C61.5183 22.2319 60.6701 22.0109 60.0451 22.0109C59.2415 22.0109 59.0183 22.1877 59.0183 22.4971C59.0183 22.8064 59.2415 22.939 60.6254 23.381C62.0094 23.823 63.2147 24.3092 63.2147 25.8562C63.2147 27.5799 61.7861 28.1987 60.0451 28.1987Z" fill="black"/>
<path d="M67.5451 28.1987C66.3397 28.1987 65.1343 27.8451 64.2861 27.3147L64.9558 25.7678C65.7593 26.2098 66.6522 26.475 67.6343 26.475C68.4379 26.475 68.6611 26.2982 68.6611 25.9004C68.6611 25.5468 68.3933 25.37 67.5451 25.149C65.6701 24.5744 64.5093 24.1324 64.5093 22.5413C64.5093 20.9501 65.804 20.2871 67.5897 20.2871C68.5718 20.2871 69.6433 20.5965 70.4468 21.0385L69.7772 22.6296C69.0183 22.2319 68.1701 22.0109 67.5451 22.0109C66.7415 22.0109 66.5183 22.1877 66.5183 22.4971C66.5183 22.8064 66.7415 22.939 68.1254 23.381C69.5093 23.823 70.7147 24.3092 70.7147 25.8562C70.7147 27.5799 69.2861 28.1987 67.5451 28.1987Z" fill="black"/>
</svg>
